#!OML:ASF F:\VICON\USERDATA\INSTALL\rory3\rory3.ASF
:FULLY-SPECIFIED
:DEGREES
584
root -0.477432 29.9944 -9.18003 6.63641 241.21 -5.16861
lowerback 8.01495 0.440521 -1.03194
upperback 0.406626 0.432506 -0.758989
thorax -4.07618 0.214929 -0.254265
lowerneck -7.45577 0.988764 -5.29574
upperneck 18.0362 1.03034 4.01617
head 6.65432 0.323204 2.23654
rclavicle 2.43387e-014 3.8763e-015
rhumerus -36.416 5.53634 -77.5142
rradius 44.4211
rwrist 24.0782
rhand -18.8937 6.44051
rfingers 7.12502
rthumb 7.40777 -23.4098
lclavicle 2.43387e-014 3.8763e-015
lhumerus -27.628 21.14 75.1734
lradius 22.904
lwrist -4.14482
lhand -24.8129 25.4279
lfingers 7.12502
lthumb 1.69224 55.401
rfemur -10.5489 19.5142 18.5768
rtibia 26.4187
rfoot -17.2746 -12.4604
rtoes 0.566089
lfemur -8.68874 -13.3862 -18.8461
ltibia 18.8759
lfoot -9.58947 -16.8969
ltoes -6.32687
585
root -0.450276 29.9934 -9.21255 7.5056 241.955 -6.33294
lowerback 8.24418 0.510909 -1.47635
upperback 0.418933 0.47212 -0.88191
thorax -4.19493 0.240642 -0.13828
lowerneck -6.84063 1.09252 -5.09482
upperneck 17.5311 1.18633 3.70396
head 6.38236 0.390815 2.1023
rclavicle 4.0726e-014 9.93923e-016
rhumerus -36.3022 5.37124 -77.4056
rradius 44.4094
rwrist 24.0242
rhand -19.2648 6.58515
rfingers 7.12502
rthumb 7.04956 -23.2775
lclavicle 4.0726e-014 9.93923e-016
lhumerus -27.6952 21.8042 74.9138
lradius 22.6152
lwrist -4.89592
lhand -24.7115 25.3386
lfingers 7.12502
lthumb 1.79019 55.3109
rfemur -10.2812 19.3867 18.3097
rtibia 26.5135
rfoot -17.4673 -13.1428
rtoes 0.613583
lfemur -8.69081 -12.8513 -19.3569
ltibia 18.998
lfoot -9.87198 -16.8976
ltoes -8.31158
586
root -0.416686 29.9932 -9.24064 8.07841 242.667 -7.09361
lowerback 8.54118 0.594102 -1.68915
upperback 0.413493 0.551526 -0.921308
thorax -4.36964 0.283619 -0.0719347
lowerneck -6.6749 1.14424 -4.86254
upperneck 17.3418 1.31564 3.20073
head 6.29505 0.433148 1.90842
rclavicle -3.77691e-015 -1.26228e-014
rhumerus -36.1641 5.39496 -77.2414
rradius 44.4059
rwrist 23.7572
rhand -19.5186 6.78291
rfingers 7.12502
rthumb 6.80456 -23.0877
lclavicle -3.77691e-015 -1.26228e-014
lhumerus -27.7565 22.4613 74.7748
lradius 22.3652
lwrist -5.66942
lhand -24.1654 25.1222
lfingers 7.12502
lthumb 2.31763 55.0893
rfemur -10.1124 19.2759 18.2353
rtibia 26.5962
rfoot -17.5811 -13.7543
rtoes 0.631126
lfemur -8.80284 -12.3993 -19.6084
ltibia 19.1588
lfoot -10.2971 -16.5353
ltoes -10.2776
587
root -0.387922 29.989 -9.27613 7.87146 243.41 -6.82651
lowerback 8.54141 0.682305 -1.45907
upperback 0.460622 0.697 -0.829335
thorax -4.32058 0.351948 -0.123167
lowerneck -6.77654 1.09989 -4.78921
upperneck 17.1143 1.30333 3.0126
head 6.24423 0.427802 1.83433
rclavicle -4.7435e-014 -1.67973e-014
rhumerus -35.9352 5.38809 -77.0794
rradius 44.4449
rwrist 23.3637
rhand -19.8374 6.54002
rfingers 7.12502
rthumb 6.49681 -23.3403
lclavicle -4.7435e-014 -1.67973e-014
lhumerus -27.6891 21.8225 75.1562
lradius 22.5034
lwrist -4.87779
lhand -23.1943 24.6976
lfingers 7.12502
lthumb 3.25547 54.6525
rfemur -10.0755 19.1939 18.6657
rtibia 26.6393
rfoot -17.6555 -14.3579
rtoes 0.632557
lfemur -9.04562 -11.9687 -19.293
ltibia 19.4
lfoot -10.933 -16.0071
ltoes -11.983
588
root -0.370746 29.9859 -9.31591 7.79792 244.23 -6.68424
lowerback 8.3647 0.738406 -1.30273
upperback 0.551327 0.794767 -0.761038
thorax -4.12684 0.39717 -0.148829
lowerneck -9.28152 -0.60384 -5.00066
upperneck 18.3317 -0.70837 2.13528
head 7.16374 -0.619654 1.44705
rclavicle -3.77194e-014 6.55989e-015
rhumerus -35.6115 5.28512 -76.9278
rradius 44.4098
rwrist 23.0923
rhand -19.9234 6.5384
rfingers 7.12502
rthumb 6.41377 -23.3445
lclavicle -3.77194e-014 6.55989e-015
lhumerus -27.602 21.2996 75.4414
lradius 22.6258
lwrist -4.05119
lhand -22.4382 24.5319
lfingers 7.12502
lthumb 3.98566 54.4744
rfemur -9.97998 18.9547 19.0486
rtibia 26.6491
rfoot -17.8051 -14.9339
rtoes 0.444817
lfemur -9.30087 -11.475 -19.0803
ltibia 19.7445
lfoot -11.4752 -15.4794
ltoes -12.956
